<?xml version="1.0" encoding="UTF-8"?>
<svg id="Capa_1" data-name="Capa 1" xmlns="http://www.w3.org/2000/svg" viewBox="0 0 24 24">
  <defs>
    <style>
      .cls-1 {
        fill: #171717;
      }
    </style>
  </defs>
  <g>
    <path class="cls-1" d="M14.72,16.41s0-.13-.03-.19c-.05-.07-.18-.06-.17-.17.56.27.37-.59-.02-.15-.03-.06-.05-.1-.13-.09,0-.14.11-.05.19-.06.25-.02.21-.43-.07-.38.17-.16.09-.39-.15-.4l.1-.1c.11.22.4.12.37-.12.13.05.27.03.3-.12h.04c.17.24.52-.03.3-.24-.12-.11-.3-.03-.31.12-.05,0-.03-.06-.09-.1-.17-.08-.32.03-.29.22-.14-.09-.24-.03-.34.09,0-.09-.18-.1-.16-.16.03-.08.14.05.24.03.2-.04.16-.24.18-.25.01-.01.28.02.31-.15.12.14.32.1.34-.09.14.21.44.14.38-.13-.03-.17-.33-.19-.36.01-.08.02-.05-.04-.09-.07-.17-.15-.3.09-.34.09-.02,0-.09-.09-.19-.07-.19.03-.17.25-.19.25l-.1-.03c.05-.08.11-.14.06-.24.14.06.26-.13.31-.14.11-.02.25.1.35-.12.11.14.34.09.34-.09.11.16.35.18.4-.03.3.42.59-.2.23-.24-.13-.01-.17.06-.23.15-.08-.19-.31-.22-.37,0-.15-.17-.31-.17-.43.03-.13-.14-.28-.1-.36.06-.17-.12-.38-.03-.37.19l-.09.02c.07-.08.06-.16.06-.27.16.07.24-.13.29-.15.07-.02.14.08.26-.03.03-.02.04-.09.06-.09.1-.02.28.13.34-.12.15.12.34.14.38-.09.06,0,.03.09.11.11.47.15.27-.73-.12-.23-.09-.19-.3-.14-.38.03-.17-.25-.36.05-.38.06-.01,0-.06-.05-.1-.05-.12-.02-.21.02-.25.14l-.2-.03s.09-.14.09-.14c.08-.04.31.05.32-.18.18.18.32-.09.34-.09.12-.02.27.12.38-.12.21.25.51-.11.28-.28-.2-.15-.3.1-.34.1-.1-.15-.3-.12-.34.06-.02.02-.18-.14-.34,0-.03.02-.04.08-.05.09-.02.01-.17-.08-.29.02-.07.06-.06.14-.21.1.08-.25.14-.1.28-.18.09-.05.1-.17.11-.17.02-.01.29.1.33-.15.18.18.32-.09.34-.09.03,0,.1.03.15.03.41.01.17-.61-.12-.36-.03.03-.04.08-.05.09-.03.02-.18-.14-.34,0-.03.03-.04.08-.05.09-.02.01-.33-.1-.38.14l-.21-.02s.07-.04.1-.09c.03-.03.04-.11.05-.12,0,0,.12.05.22-.03.06-.05.07-.14.07-.15.02-.01.32.11.33-.15.24.2.51-.18.26-.34-.21-.14-.32.13-.34.13,0,0-.05-.08-.17-.05-.13.03-.14.15-.17.17,0,0-.12-.05-.21-.02-.1.03-.11.23-.29.17.05-.04.09-.17.12-.19.03-.03.11-.02.18-.06.06-.04.09-.13.12-.15.02-.01.12.02.21-.03.08-.05.08-.16.09-.16,0,0,.08.03.13.03.3-.01.26-.53-.1-.4-.08.03-.1.12-.13.13-.03,0-.1-.03-.17-.02-.12.02-.14.15-.19.17-.13.04-.28-.02-.31.21h-.11c.06-.04.08-.19.12-.22.04-.03.12-.02.18-.06.07-.05.08-.15.09-.16.03-.02.12,0,.2-.05.07-.05.08-.16.09-.16.01,0,.09.06.2-.02.23-.15.08-.48-.21-.38-.11.04-.1.15-.12.16-.01,0-.16-.09-.3.07-.02.03-.02.09-.03.1-.02.02-.16-.02-.24.04-.05.03-.12.26-.17.2,0,0,.09-.22.1-.23.02-.02.12-.02.19-.09.06-.06.07-.17.08-.18.02-.02.16.02.23-.08.03-.03.03-.1.06-.12.05-.04.15,0,.24-.09.25-.28-.32-.59-.39-.16-.1-.06-.23-.03-.29.08-.02.04-.03.12-.04.13-.02.01-.24,0-.29.09-.03-.13.06-.08.13-.12.13-.08.11-.19.14-.23.02-.02.13-.02.19-.06.07-.05.06-.16.08-.17.02-.01.15-.02.21-.07.25-.2-.1-.59-.32-.32-.03.04-.04.11-.05.12-.02.02-.14-.01-.23.08-.07.07-.08.18-.09.19-.02.02-.22.03-.26.12v-.12c.12.01.21-.08.25-.18.02-.03,0-.1.02-.12.02-.02.18.01.24-.13.02-.04.02-.13.03-.14,0,0,.09,0,.14-.03.28-.13.09-.57-.21-.42-.12.06-.1.19-.14.22-.04.03-.14,0-.21.06-.07.06-.07.18-.1.21-.02.02-.1.03-.14.05-.11.07-.13.18-.12.31h-.12c.02-.1.05-.17,0-.27.2,0,.35-.17.27-.36.12.01.24-.03.28-.15.01-.04,0-.14.02-.15.02-.02.21.01.27-.13.17-.4-.5-.51-.45-.05-.22-.03-.33.11-.3.33-.25-.02-.35.16-.27.38-.11-.02-.16.02-.24.09.02-.12-.02-.19-.06-.3.23.07.39-.19.27-.38.23.05.39-.13.3-.36.44.09.44-.56.02-.47-.15.03-.21.22-.14.35-.24-.05-.43.16-.3.38-.3-.04-.43.22-.24.44-.55-.05-.32.7.12.38l.03.24c-.13-.03-.17.05-.27.12.02-.15-.03-.29-.19-.3-.34-.02-.32.53.05.44.1-.02.08-.08.14-.11-.04.22.12.37.33.3l-.03.15c-.11-.08-.18-.06-.3,0,.03-.36-.48-.32-.41.01.03.15.24.19.35.1,0,.16.1.3.27.27-.06.09-.09.17-.03.27h-.12c.11-.18-.09-.4-.26-.28-.19.13-.05.4.18.34-.12.17-.06.33.15.37-.05.16-.09.06-.16.04-.19-.03-.29.15-.17.3l.19.03c0,.05-.07.03-.1.09-.07.13,0,.28.16.29-.19.2.09.35.09.37,0,.04-.04.11-.03.17,0,.11.13.16.14.21,0,.04-.03.1,0,.19.02.1.13.15.14.17.01.06-.04.13,0,.22.03.07.11.11.12.14.02.06-.05.14.05.28.04.06.11.07.11.08,0,.01-.06.15.06.31.02.03.08.04.09.05,0,0-.03.1-.01.17.03.13.14.15.16.18,0,.01-.05.16.04.27.03.04.1.06.11.09,0,.03-.03.08,0,.15.03.1.12.13.15.18.02.05-.01.1,0,.17.03.1.12.13.14.18.03.07,0,.15.04.23.03.08.12.09.14.12.01.02-.04.11.02.22.04.07.14.1.14.11.02.03-.05.13.01.24.06.12.18.1.2.11.03.04-.05.45.3.29-.06.39.47.29.37,0-.05-.15-.24-.1-.25-.12ZM12.95,9.51h-.12c.01-.1.03-.18-.03-.27l.18-.03c-.03.12-.09.17-.03.3Z"/>
    <path class="cls-1" d="M11.7,16.38s.02-.07.02-.1c-.02-.17-.18-.2-.19-.24,0-.03.03-.08.03-.12,0-.13-.08-.17-.18-.24.11-.11.07-.24-.03-.34.14,0,.21-.13.16-.26-.13-.3-.55.02-.27.26-.1,0-.2.1-.21.19,0,.14.14.17.15.21,0,.03-.05.07-.06.12-.05.23.17.25.17.29,0,.01-.05.07-.06.12,0,.08.08.12.04.19-.16-.07-.07-.17-.14-.31-.04-.08-.13-.1-.14-.11,0-.01.08-.17-.02-.29-.02-.02-.07-.03-.07-.05,0-.04.06-.1.06-.18,0-.08-.06-.12-.06-.19.24-.02.18-.4-.06-.39.3-.31-.25-.51-.3-.22-.04.23.18.22.18.26-.17.1-.03.26-.03.3,0,.04-.24.08-.17.32.01.05.08.07.08.12,0,.04-.05.07-.06.12-.04.22.14.27.15.29l-.07.1c0-.09-.12-.19-.13-.23,0-.05.04-.1.01-.19-.02-.05-.1-.11-.1-.13,0-.02.05-.09.05-.15,0-.06-.03-.15-.03-.17.01-.04.16-.07.16-.21,0-.16-.16-.2-.17-.23,0-.03.14-.16,0-.3-.22-.22-.52.25-.18.31-.14.08-.05.34-.06.35,0,.01-.21.07-.22.18l-.04-.12c.26-.02.26-.39,0-.41-.01-.1.09-.05.12-.16.07-.36-.47-.32-.37-.01.03.09.12.1.17.18-.08,0-.14.07-.15.15-.05-.01-.02-.11-.05-.17-.05-.11-.2-.1-.3-.1.07-.19.02-.3-.15-.4.2-.1.21-.27.06-.43h.14c.04.24.42.19.38-.07-.02-.15-.17-.13-.23-.18-.04-.04-.03-.11-.11-.16-.14-.08-.3.06-.4-.09.11.07.23-.03.3-.02.02,0,.2.09.21.09.09.08.08.27.33.16.02.3.43.16.31-.09-.06-.13-.21-.05-.22-.06,0,0-.04-.15-.08-.18-.04-.03-.14-.02-.15-.03-.02-.02,0-.14-.09-.22-.12-.09-.17-.01-.25-.02-.03,0-.18-.1-.2-.14.06,0,.1.06.16.06.07,0,.12-.05.15-.05.03,0,.15.16.25.11-.05.16.11.3.27.21.03.25.14.22.33.15,0-.03.03-.07.03-.1,0-.13-.14-.22-.26-.16.08-.21-.19-.22-.21-.24,0,0,.01-.14-.06-.22-.13-.15-.27.04-.36-.16.2-.06.19.01.3.07.04.02.13.02.14.02.02.03-.04.35.27.27l.04.17c.14.07.29.05.29-.13,0-.22-.21-.13-.24-.16-.02-.02.02-.28-.2-.27v-.17c.06,0,.01.1.08.13.06.03.14,0,.21.01-.09.39.46.24.29-.01-.06-.09-.19-.07-.2-.08-.02-.02.03-.32-.24-.28l.07-.1c.08.09.14.1.25.06-.15.29.28.4.3.13,0-.14-.11-.22-.24-.16.07-.2,0-.31-.21-.34.07-.22.15.07.34-.05.25-.16-.13-.52-.29-.2-.06-.11-.18-.09-.25-.13-.04-.03-.06-.12-.12-.15-.08-.03-.15,0-.22-.01-.03,0-.04-.07-.09-.1-.1-.05-.28,0-.35-.14.07.05.17,0,.22,0,.04,0,.08.09.16.11.06.01.13-.02.16,0,.03.01.05.07.09.09.06.03.13,0,.18.03.04.02.06.13.14.16.13.04.21-.01.29-.11.16.27.5-.08.26-.23-.17-.11-.24.06-.29.05-.05-.08-.17-.09-.22-.13-.05-.04-.05-.12-.11-.16-.07-.04-.14-.02-.2-.04-.04-.01-.06-.1-.14-.13-.1-.04-.21,0-.27-.13.17-.07.17.05.27.1.14.06.12.03.27.12.06.04.18.04.19.06.03.03.02.17.18.19.11.01.18-.1.2-.1.04,0,.22.28.38-.06.11.29.47.08.28-.13-.1-.12-.23-.07-.27.07h-.06c0-.08-.07-.12-.14-.14l-.17.08c-.04-.12-.24-.11-.25-.12,0,0,0-.14-.07-.21-.07-.06-.17-.04-.21-.07-.02-.01-.04-.09-.1-.12-.07-.04-.16-.02-.18-.03-.03-.02-.05-.09-.11-.13-.06-.04-.13-.02-.19-.05-.05-.02-.08-.1-.16-.13-.27-.11-.5.24-.31.46.03.04.09.03.09.07-.35-.05-.5.27-.3.53-.33.02-.45.34-.21.56-.35-.02-.48.32-.24.56-.33-.04-.47.29-.27.53-.33.02-.42.31-.24.56-.32-.02-.4.29-.27.53-.29.04-.4.34-.21.56-.34,0-.39.3-.27.56-.32,0-.4.43-.15.61-.27.19-.22.58.12.64-.16.29.08.66.41.53-.05.21.17.43.37.41.07,0,.21-.09.24-.09.03,0,.07.1.11.13.15.12.44.1.5-.1.22.24.43.23.65,0,.1.24.48.22.56-.03.2.23.45.25.61-.03h.04c.17.4.75.07.5-.3l.12.03c-.2.52.63.48.49.03-.04-.14-.21-.16-.22-.18ZM10.06,12.36c-.07-.13-.19-.06-.28-.1,0,0-.09-.11-.12-.13.21-.06.27.15.47.12l-.07.12ZM9.87,11.63c.06.02.13,0,.18.03.07.04.1.19.3.13l-.07.15c-.06-.14-.21-.09-.28-.13-.04-.02-.05-.11-.16-.14-.11-.04-.2.06-.26-.08.17-.06.19.01.29.05ZM9.07,14.43c.02.08-.06.06-.1.12-.04.05-.02.14-.07.15l-.12-.19c.09-.07.18-.13.3-.07ZM8.39,15.08l.09-.18.21.06-.12.21-.18-.09ZM8.97,15.73c-.04-.19-.17-.29-.37-.27v-.12c.08,0,.09.07.16.09.08.01.15-.02.22-.03-.04.1-.01.17.05.25l-.07.07ZM9.07,15.28c.03-.2-.04-.37-.27-.36l.09-.15h.06c.02.14.18.16.3.12-.04.12-.05.21.03.33l-.21.06ZM9.51,15.43c-.06.05-.08-.12-.12-.15.06,0,.11,0,.16-.03.06-.04.05-.1.11-.12l.02.15c-.12,0-.14.12-.17.15Z"/>
    <path class="cls-1" d="M10.53,13.42c-.1-.03-.13.03-.19.06.01.39.42.02.19-.06Z"/>
    <path class="cls-1" d="M9.75,9.15c.1.09.18.05.23.08.01,0,.04.08.08.11.07.06.14.04.19.07.04.03.06.12.12.15.06.03.15,0,.17.02.04.03.07.27.27.2-.07.22.19.36.34.18.08.1.1.2.26.17.3-.06.06-.56-.21-.29,0-.15-.09-.22-.24-.21.03-.08,0-.2-.06-.25-.06-.05-.15-.03-.17-.05-.01-.01-.01-.12-.08-.17-.07-.06-.15-.04-.19-.06-.02-.01-.04-.12-.11-.17-.05-.04-.12-.04-.16-.07-.04-.03-.06-.1-.12-.14-.29-.18-.57.22-.32.44Z"/>
    <path class="cls-1" d="M9.53,9.72c.07.05.15.04.22.08.05.02.07.09.13.11.11.05.38.13.47.19.03.02.05.1.11.13.05.03.14.02.15.04.02.02.01.18.15.22.14.04.19-.07.22-.07.02,0,.07.09.12.11.2.06.32-.2.17-.32-.12-.1-.2,0-.26,0-.04,0-.07-.07-.11-.1-.03-.02-.1,0-.11-.02-.01-.01,0-.18-.1-.24-.06-.04-.13-.02-.16-.03-.01,0-.03-.08-.05-.11-.09-.12-.22-.07-.25-.09,0,0-.01-.08-.06-.13-.07-.07-.15-.05-.21-.09-.04-.02-.05-.09-.11-.13-.31-.18-.6.28-.32.47Z"/>
    <path class="cls-1" d="M10.19,8.67s.05.12.11.16c.07.04.15.02.18.04.02.01.04.15.11.2.07.05.21.02.22.03,0,0-.03.17.09.22.07.03.14.01.21.02-.11.2.1.42.3.28.19-.13.04-.41-.18-.37.07-.18-.06-.39-.27-.33.02-.13,0-.22-.13-.27-.04-.02-.13-.02-.14-.03-.01-.01,0-.11-.05-.17-.06-.07-.18-.07-.21-.1-.02-.02-.03-.11-.08-.16-.21-.22-.61.05-.42.34.08.12.18.09.25.14Z"/>
    <path class="cls-1" d="M10.55,8.16s.06.37.33.26c-.02.24.13.33.36.3-.09.3.08.34.33.33.02-.05.07-.08.08-.14.05-.22-.11-.35-.32-.28.1-.22-.03-.39-.27-.39.07-.3-.19-.26-.26-.33-.03-.03-.02-.15-.11-.23-.27-.21-.57.17-.37.4.09.1.21.06.23.08Z"/>
    <path class="cls-1" d="M11.53,9.35c.18.24.49-.01.36-.24-.09-.15-.22-.08-.33-.07-.05.11-.12.19-.03.31Z"/>
    <path class="cls-1" d="M11.05,7.77c-.07.24.12.43.35.33.03.03-.13.18.03.34.34.33.69-.5.06-.4.13-.21-.02-.44-.27-.41.01-.13,0-.3-.15-.34-.45-.14-.51.57-.03.49Z"/>
    <path class="cls-1" d="M12.47,15.76c.04-.13-.05-.21-.18-.21.08-.1.1-.18.03-.3.14.05.26-.07.21-.21.13.12.3.06.26-.13-.09-.16-.29-.09-.26.1-.17-.13-.35,0-.27.21-.27-.05-.35.32-.06.33-.14.2-.04.41.21.33-.11.24.29.33.35.13.06-.21-.11-.3-.29-.25Z"/>
    <path class="cls-1" d="M12.27,16.16c-.08-.08-.07-.22-.27-.19.04-.12.05-.22-.06-.31-.37-.12-.47.37-.09.37-.03.1-.05.18,0,.28.03.05.09.06.11.09.02.03.02.08.04.12.19.27.54.05.42-.22-.03-.06-.12-.09-.16-.14Z"/>
    <path class="cls-1" d="M15.25,14.88c-.15-.09-.32-.01-.32.17-.36-.17-.47.35-.11.32.14-.01.14-.12.14-.24.22.17.46-.02.29-.26Z"/>
    <path class="cls-1" d="M11.63,7.86c.31.48.82-.5.07-.35-.07.13-.19.17-.07.35Z"/>
    <path class="cls-1" d="M11.7,7.5c.07-.13.14-.22.03-.37-.21-.3-.65.08-.4.34.13.13.24.06.37.03Z"/>
    <circle class="cls-1" cx="12.12" cy="7.22" r=".25"/>
    <path class="cls-1" d="M12.19,7.89c.18.3.64-.02.4-.32.25.07.48-.14.33-.37-.21-.31-.65.06-.35.34-.24-.12-.51.11-.37.35Z"/>
    <circle class="cls-1" cx="12.14" cy="8.21" r=".25"/>
    <path class="cls-1" d="M16.95,15.68c-.06-.12-.18-.11-.27-.04,0-.22-.34-.24-.34-.01,0,.18.2.21.31.1,0,.29.42.19.3-.05Z"/>
    <circle class="cls-1" cx="11.91" cy="8.7" r=".23"/>
    <circle class="cls-1" cx="11.74" cy="9.72" r=".2"/>
    <circle class="cls-1" cx="9.57" cy="14.41" r=".19"/>
    <path class="cls-1" d="M11.77,15.61c.11,0,.19-.09.19-.19s-.09-.19-.19-.19-.19.09-.19.19.09.19.19.19Z"/>
    <circle class="cls-1" cx="15.92" cy="14.02" r=".19"/>
    <circle class="cls-1" cx="15.72" cy="14.53" r=".19"/>
    <circle class="cls-1" cx="16.33" cy="14.04" r=".19"/>
    <path class="cls-1" d="M12.11,15.03c0-.1-.08-.18-.18-.18s-.18.08-.18.18.08.18.18.18.18-.08.18-.18Z"/>
    <path class="cls-1" d="M15.7,15.01c0-.1-.08-.18-.18-.18s-.18.08-.18.18.08.18.18.18.18-.08.18-.18Z"/>
    <path class="cls-1" d="M11.18,14.97c.1,0,.18-.08.18-.18s-.08-.18-.18-.18-.18.08-.18.18.08.18.18.18Z"/>
    <circle class="cls-1" cx="16.14" cy="14.55" r=".18"/>
    <circle class="cls-1" cx="15.93" cy="15.02" r=".18"/>
    <path class="cls-1" d="M15.23,15.31c-.13.06-.08.14-.1.24.4.34.43-.38.1-.24Z"/>
    <path class="cls-1" d="M14.8,15.52c-.1.22.28.46.34.03-.12-.1-.17-.22-.34-.03Z"/>
    <path class="cls-1" d="M16.39,14.6c0,.1.08.18.18.18s.18-.08.18-.18-.08-.18-.18-.18-.18.08-.18.18Z"/>
    <circle class="cls-1" cx="11.89" cy="10.18" r=".18"/>
    <path class="cls-1" d="M15.67,16.68c-.1,0-.17.08-.17.17s.08.17.17.17.17-.08.17-.17-.08-.17-.17-.17Z"/>
    <circle class="cls-1" cx="10.31" cy="14.4" r=".17"/>
    <path class="cls-1" d="M16.54,15.08c0-.1-.08-.17-.17-.17s-.17.08-.17.17.08.17.17.17.17-.08.17-.17Z"/>
    <path class="cls-1" d="M11.62,14.97c.09,0,.17-.08.17-.17s-.08-.17-.17-.17-.17.08-.17.17.08.17.17.17Z"/>
    <circle class="cls-1" cx="15.71" cy="15.47" r=".17"/>
    <circle class="cls-1" cx="10.72" cy="14.41" r=".17"/>
    <path class="cls-1" d="M15.17,16.62c-.09,0-.17.08-.17.17s.08.17.17.17.17-.08.17-.17-.08-.17-.17-.17Z"/>
    <path class="cls-1" d="M16.62,15.15c0,.09.08.17.17.17s.17-.08.17-.17-.08-.17-.17-.17-.17.08-.17.17Z"/>
    <circle class="cls-1" cx="10.01" cy="14.14" r=".17"/>
    <circle class="cls-1" cx="11.13" cy="14.41" r=".17"/>
    <circle class="cls-1" cx="11.54" cy="10.36" r=".17"/>
    <path class="cls-1" d="M16.29,15.53c0-.09-.08-.17-.17-.17s-.17.08-.17.17.08.17.17.17.17-.08.17-.17Z"/>
    <path class="cls-1" d="M15.39,15.98c0-.09-.07-.17-.17-.17s-.17.07-.17.17.07.17.17.17.17-.07.17-.17Z"/>
    <path class="cls-1" d="M14.96,16.08c-.09,0-.17.07-.17.17s.07.17.17.17.17-.07.17-.17-.07-.17-.17-.17Z"/>
    <path class="cls-1" d="M15.76,15.89c0-.09-.07-.16-.16-.16s-.16.07-.16.16.07.16.16.16.16-.07.16-.16Z"/>
    <circle class="cls-1" cx="11.19" cy="11.11" r=".17"/>
    <circle class="cls-1" cx="12.2" cy="14.76" r=".16"/>
    <circle class="cls-1" cx="10.86" cy="11.86" r=".16"/>
    <circle class="cls-1" cx="11.02" cy="11.48" r=".16"/>
    <circle class="cls-1" cx="11.55" cy="14.42" r=".16"/>
    <circle class="cls-1" cx="15.95" cy="15.95" r=".16"/>
    <circle class="cls-1" cx="16.28" cy="16.07" r=".16"/>
    <circle class="cls-1" cx="12.1" cy="10.71" r=".16"/>
    <circle class="cls-1" cx="11.95" cy="14.5" r=".16"/>
    <circle class="cls-1" cx="16.56" cy="16.29" r=".16"/>
    <circle class="cls-1" cx="15.64" cy="16.29" r=".15"/>
    <path class="cls-1" d="M16.14,16.41c0-.09-.07-.15-.15-.15s-.15.07-.15.15.07.15.15.15.15-.07.15-.15Z"/>
    <circle class="cls-1" cx="11.74" cy="10.74" r=".15"/>
    <path class="cls-1" d="M15.31,16.29c-.08,0-.15.07-.15.15s.07.15.15.15.15-.07.15-.15-.07-.15-.15-.15Z"/>
    <circle class="cls-1" cx="11.57" cy="11.08" r=".15"/>
    <circle class="cls-1" cx="16.14" cy="16.71" r=".15"/>
    <circle class="cls-1" cx="11.41" cy="11.43" r=".15"/>
    <circle class="cls-1" cx="12.73" cy="15.4" r=".14"/>
    <circle class="cls-1" cx="11.25" cy="11.78" r=".14"/>
    <circle class="cls-1" cx="11.1" cy="12.13" r=".14"/>
    <circle class="cls-1" cx="10.94" cy="12.48" r=".13"/>
    <circle class="cls-1" cx="12.51" cy="14.63" r=".13"/>
    <path class="cls-1" d="M12.38,14.34c0-.07-.06-.13-.13-.13s-.13.06-.13.13.06.13.13.13.13-.06.13-.13Z"/>
    <circle class="cls-1" cx="10.78" cy="12.82" r=".13"/>
    <circle class="cls-1" cx="10.63" cy="13.18" r=".13"/>
    <path class="cls-1" d="M10.79,13.91c-.07,0-.13.06-.13.13s.06.13.13.13.13-.06.13-.13-.06-.13-.13-.13Z"/>
    <path class="cls-1" d="M11.05,14.03c0,.07.06.12.12.12s.12-.06.12-.12-.06-.12-.12-.12-.12.06-.12.12Z"/>
    <circle class="cls-1" cx="11.93" cy="14.13" r=".12"/>
    <path class="cls-1" d="M10.57,13.95c.09-.17-.17-.22-.22-.14-.08.13.14.3.22.14Z"/>
    <circle class="cls-1" cx="11.56" cy="14.04" r=".12"/>
  </g>
  <path class="cls-1" d="M12,23.39C5.57,23.39.34,18.28.34,12S5.57.61,12,.61s11.66,5.11,11.66,11.39-5.23,11.39-11.66,11.39ZM12,1.11C5.84,1.11.84,5.99.84,12s5.01,10.89,11.16,10.89,11.16-4.89,11.16-10.89S18.16,1.11,12,1.11Z"/>
</svg>