<?xml version="1.0" encoding="UTF-8"?>
<svg id="Capa_1" data-name="Capa 1" xmlns="http://www.w3.org/2000/svg" viewBox="0 0 24 24">
  <defs>
    <style>
      .cls-1 {
        fill: #171717;
      }
    </style>
  </defs>
  <g>
    <path class="cls-1" d="M17.62,8.15c-.03-.24-.17-.45-.39-.56l-2.32-1.12c-.26-.13-.57-.08-.78.12,0,0-.01,0-.02.01l-3.74,4.13-2.18-1.79-.19-.16c-.13-.11-.32-.14-.49-.08l-.85.35c-.17.07-.29.24-.29.43v5c0,.19.11.36.29.43l.85.36c.16.07.35.04.49-.08l.19-.16,2.18-1.79,3.74,4.13s.01,0,.02.01c.21.2.52.25.78.12l2.32-1.12c.22-.11.37-.32.39-.56,0-.02,0-.05,0-.07v-7.56s0-.05,0-.07ZM7.78,13.61v-3.21l1.45,1.61-1.45,1.61ZM11.91,12l2.9-2.38v4.76l-2.9-2.38Z"/>
    <path class="cls-1" d="M8.19,8.95l-.19-.16c-.13-.11-.32-.14-.49-.08.16-.07.35-.04.49.07l.19.16Z"/>
    <path class="cls-1" d="M17.62,15.85c-.03.24-.17.45-.39.56l-2.32,1.11,2.32-1.12c.22-.11.37-.32.39-.56Z"/>
    <path class="cls-1" d="M17.23,7.59l-2.32-1.12,2.32,1.11c.22.11.37.32.39.56-.03-.24-.17-.45-.39-.56Z"/>
  </g>
  <path class="cls-1" d="M12,23.39C5.57,23.39.34,18.28.34,12S5.57.61,12,.61s11.66,5.11,11.66,11.39-5.23,11.39-11.66,11.39ZM12,1.11C5.84,1.11.84,5.99.84,12s5.01,10.89,11.16,10.89,11.16-4.89,11.16-10.89S18.15,1.11,12,1.11Z"/>
</svg>