<?xml version="1.0" encoding="UTF-8"?>
<svg id="Capa_1" data-name="Capa 1" xmlns="http://www.w3.org/2000/svg" viewBox="0 0 24 24">
  <defs>
    <style>
      .cls-1 {
        fill: #171717;
      }
    </style>
  </defs>
  <g>
    <path class="cls-1" d="M19.01,10.46c-.56-.6-1.32-.9-2.29-.9-.69,0-1.28.15-1.78.44-.5.29-.88.71-1.14,1.25-.26.54-.39,1.16-.39,1.86v.18c0,1.01.33,1.83.98,2.45.65.63,1.5.94,2.56.94.56,0,1.09-.11,1.58-.33s.87-.51,1.13-.88l-.98-1.16c-.38.47-.91.71-1.59.71-.41,0-.74-.11-1-.33-.26-.22-.43-.52-.5-.91h4.25v-.83h0c0-1.07-.28-1.91-.84-2.5ZM17.75,12.46h-2.16c.12-.83.49-1.24,1.12-1.24.34,0,.6.09.78.28.18.19.27.45.26.8v.17Z"/>
    <path class="cls-1" d="M9.64,7.32h-2.09l-3.39,9.24h2.38l.53-1.73h3.05l.54,1.73h2.39l-3.42-9.24ZM7.6,13.11l.99-3.21,1,3.21h-1.99Z"/>
  </g>
  <path class="cls-1" d="M12,23.39C5.57,23.39.34,18.28.34,12S5.57.61,12,.61s11.66,5.11,11.66,11.39-5.23,11.39-11.66,11.39ZM12,1.11C5.84,1.11.84,5.99.84,12s5.01,10.89,11.16,10.89,11.16-4.89,11.16-10.89S18.15,1.11,12,1.11Z"/>
</svg>