<?xml version="1.0" encoding="UTF-8"?>
<svg id="Capa_1" data-name="Capa 1" xmlns="http://www.w3.org/2000/svg" viewBox="0 0 24 24">
  <defs>
    <style>
      .cls-1 {
        fill: #171717;
      }
    </style>
  </defs>
  <g>
    <path class="cls-1" d="M6.47,16.68h2.05c.05,0,.1-.04.12-.09l.6-2.16h2.33l.65,2.16c.02.05.06.09.12.09h2.13c.07,0,.12-.05.12-.12,0-.02,0-.04-.01-.05l-2.71-8.75c-.02-.05-.06-.09-.12-.09h-2.6c-.05,0-.1.04-.12.09l-2.68,8.76s0,.08.02.11c.02.03.06.05.1.05ZM11.21,12.71h-1.61l.48-1.7c.09-.31.17-.67.25-1.02.02-.08.04-.16.05-.24.1.42.22.88.34,1.26l.5,1.7Z"/>
    <path class="cls-1" d="M15.49,10.08c-.07,0-.12.05-.12.12v6.36c0,.07.05.12.12.12h1.98c.07,0,.12-.05.12-.12v-6.36c0-.07-.05-.12-.12-.12h-1.98Z"/>
    <path class="cls-1" d="M16.46,9.55c.69,0,1.19-.47,1.19-1.11-.01-.66-.5-1.12-1.17-1.12-.35,0-.65.12-.86.34-.2.2-.3.48-.3.79,0,.29.1.57.3.77.21.22.51.34.85.34Z"/>
  </g>
  <path class="cls-1" d="M12,23.39C5.57,23.39.34,18.28.34,12S5.57.61,12,.61s11.66,5.11,11.66,11.39-5.23,11.39-11.66,11.39ZM12,1.11C5.85,1.11.84,5.99.84,12s5.01,10.89,11.16,10.89,11.16-4.89,11.16-10.89S18.15,1.11,12,1.11Z"/>
</svg>