<?xml version="1.0" encoding="UTF-8"?>
<svg id="Capa_1" data-name="Capa 1" xmlns="http://www.w3.org/2000/svg" viewBox="0 0 24 24">
  <defs>
    <style>
      .cls-1 {
        fill: #171717;
      }
    </style>
  </defs>
  <path class="cls-1" d="M12,23.39C5.57,23.39.34,18.28.34,12S5.57.61,12,.61s11.66,5.11,11.66,11.39-5.23,11.39-11.66,11.39ZM12,1.11C5.85,1.11.84,5.99.84,12s5.01,10.89,11.16,10.89,11.16-4.89,11.16-10.89S18.16,1.11,12,1.11Z"/>
  <g>
    <path class="cls-1" d="M10.67,14.38c-.13,0-.21-.1-.36-.24-.29-.3-.37-.36-.38-.49,0-.01,0-.02,0-.03,0-.05-.03-.09-.08-.11-.71-.23-1.59.09-1.81,1.12-.03.19-.09.38-.18.56-.09.19-.21.37-.35.54-.31.36-.73.63-1.19.79-.11.03-.12.19-.01.24.25.11.52.2.81.24.95.17,1.96-.09,2.78-.65l.31-.21c.31-.21.54-.55.61-.96.04-.26.02-.5-.03-.71-.01-.05-.06-.08-.1-.08,0,0,0,0,0,0Z"/>
    <path class="cls-1" d="M17.4,7.01c-.64.4-1.25.82-1.86,1.26-.87.63-1.79,1.35-2.64,2.03-.86.69-1.69,1.41-2.45,2.22-.23.26-.31.54-.29.81,0,.06.03.12.07.17l.67.74s.09.07.15.09c.28.05.59,0,.88-.23.99-.84,1.87-1.78,2.73-2.75,1.08-1.28,2.14-2.58,3.07-3.98.14-.22-.11-.47-.33-.34Z"/>
  </g>
</svg>