<?xml version="1.0" encoding="UTF-8"?>
<svg id="Capa_1" data-name="Capa 1" xmlns="http://www.w3.org/2000/svg" viewBox="0 0 24 24">
  <defs>
    <style>
      .cls-1 {
        fill: #171717;
      }
    </style>
  </defs>
  <g>
    <path class="cls-1" d="M7.9,16.76v-3.28c.17.02.38.03.61.03,1.37,0,2.48-.36,3.21-1.05.6-.57.92-1.41.92-2.37s-.39-1.78-1.07-2.32c-.67-.54-1.66-.8-3.01-.8-1.17,0-2.17.07-2.95.2-.06.01-.11.07-.11.13v9.45c0,.07.06.13.13.13h2.15c.07,0,.13-.06.13-.13ZM7.9,11.54v-2.61c.13-.03.38-.06.76-.06.99,0,1.56.46,1.56,1.27,0,.9-.65,1.43-1.73,1.43-.26,0-.44-.01-.59-.03Z"/>
    <path class="cls-1" d="M16.53,12.38c-.88-.31-1.03-.46-1.03-.67,0-.38.43-.44.69-.44.55,0,1.12.21,1.44.38.04.02.08.02.12,0,.04-.02.07-.05.08-.09l.38-1.49c.02-.06-.01-.12-.07-.15-.4-.2-1.14-.41-2.02-.41-1.74,0-2.96.99-2.96,2.41-.01.69.34,1.64,2.07,2.22.84.28.93.43.93.67,0,.11,0,.45-.79.45-.59,0-1.39-.26-1.79-.51-.04-.02-.08-.03-.12,0-.04.02-.07.05-.08.09l-.38,1.55c-.01.06.01.12.07.15.59.32,1.43.5,2.31.5,1.94,0,3.15-.91,3.15-2.38-.02-1.1-.63-1.81-1.98-2.27Z"/>
  </g>
  <path class="cls-1" d="M12,23.39C5.57,23.39.34,18.28.34,12S5.57.61,12,.61s11.66,5.11,11.66,11.39-5.23,11.39-11.66,11.39ZM12,1.11C5.84,1.11.84,5.99.84,12s5.01,10.89,11.16,10.89,11.16-4.89,11.16-10.89S18.16,1.11,12,1.11Z"/>
</svg>