<?xml version="1.0" encoding="UTF-8"?>
<svg id="Capa_1" data-name="Capa 1" xmlns="http://www.w3.org/2000/svg" viewBox="0 0 24 24">
  <defs>
    <style>
      .cls-1 {
        fill-rule: evenodd;
      }

      .cls-1, .cls-2 {
        fill: #171717;
      }
    </style>
  </defs>
  <g>
    <path class="cls-1" d="M17.01,14.83v-7.87h-2.12v3.7h-.03c-.31-.47-.96-.77-1.8-.77-1.63,0-3.07,1.33-3.05,3.63,0,2.12,1.29,3.5,2.92,3.5.88,0,1.7-.39,2.13-1.16h.03l.09,1h1.88c-.02-.46-.06-1.27-.06-2.04ZM14.89,13.83c0,.18-.01.34-.06.49-.12.6-.61,1.02-1.23,1.02-.88,0-1.45-.73-1.45-1.88,0-1.08.5-1.94,1.46-1.94.66,0,1.11.48,1.24,1.04.02.11.03.27.03.38v.89Z"/>
    <rect class="cls-2" x="6.93" y="7.47" width="2.13" height="9.41"/>
  </g>
  <path class="cls-2" d="M12,23.39C5.57,23.39.34,18.28.34,12S5.57.61,12,.61s11.66,5.11,11.66,11.39-5.23,11.39-11.66,11.39ZM12,1.11C5.84,1.11.84,5.99.84,12s5.01,10.89,11.16,10.89,11.16-4.89,11.16-10.89S18.16,1.11,12,1.11Z"/>
</svg>