<svg width="70" height="70" viewBox="0 0 70 70" fill="none" xmlns="http://www.w3.org/2000/svg">
<rect width="70" height="70" rx="35" fill="black"/>
<path d="M35.1055 14C46.7613 14.0002 56.2097 23.4497 56.21 35.1055C56.2098 46.7613 46.7613 56.2098 35.1055 56.21C23.4496 56.2098 14.0002 46.7613 14 35.1055C14.0003 23.4497 23.4497 14.0002 35.1055 14ZM44.6436 37.1055C44.2089 42.291 42.4857 47.2697 39.6533 51.5977C46.2701 49.777 51.2811 44.0827 52.0938 37.1055H44.6436ZM18.1172 37.1055C18.9298 44.0816 23.9393 49.7752 30.5547 51.5967C27.7231 47.2692 26.0019 42.2902 25.5674 37.1055H18.1172ZM29.584 37.1055C30.0739 42.1966 31.9882 47.0463 35.1045 51.0977C38.2212 47.0461 40.137 42.197 40.627 37.1055H29.584ZM30.5557 18.6123C23.9395 20.4333 18.9298 26.1287 18.1172 33.1055H25.5674C26.002 27.9199 27.7233 22.9402 30.5557 18.6123ZM35.1045 19.1113C31.9876 23.163 30.074 28.0138 29.584 33.1055H40.627C40.1369 28.0135 38.2217 23.1631 35.1045 19.1113ZM39.6533 18.6113C42.4862 22.9395 44.2089 27.9194 44.6436 33.1055H52.0938C51.2811 26.1281 46.2703 20.4319 39.6533 18.6113Z" fill="white"/>
</svg>
