<?xml version="1.0" encoding="UTF-8"?>
<svg id="Capa_1" data-name="Capa 1" xmlns="http://www.w3.org/2000/svg" viewBox="0 0 24 24">
  <defs>
    <style>
      .cls-1 {
        fill: #171717;
      }
    </style>
  </defs>
  <path class="cls-1" d="M11.26,6.98c.81-.05,1.57.23,2.12.83,1.06-.21,2.14.23,2.72,1.14.41.65.5,1.41.28,2.15.21.24.39.52.5.82.54,1.47-.37,3.06-1.88,3.36-.6,1.85-3.08,2.37-4.37.92-1.06.21-2.14-.23-2.72-1.14-.41-.65-.5-1.41-.28-2.15-1.33-1.44-.51-3.82,1.39-4.19.31-.96,1.23-1.68,2.24-1.75ZM10.42,12.36c.02-.95.01-1.91.01-2.86,0-.1.07-.19.15-.23l2.1-1.2-.26-.18c-1.23-.7-2.77.11-2.87,1.52v2.47s.87.49.87.49ZM10.89,9.85v.98l2.49-1.41c.16-.07.24-.04.38.04l2.03,1.16s.01,0,.02-.02c.23-1.54-1.35-2.66-2.74-1.99l-2.17,1.24ZM8.89,9.45c-.48.16-.89.54-1.09,1-.38.87-.06,1.87.74,2.36l2.12,1.2.86-.48-.03-.03-2.44-1.39c-.06-.03-.17-.15-.17-.22v-2.45ZM15.11,14.55c.48-.15.89-.55,1.09-1,.38-.85.07-1.83-.69-2.33l-2.15-1.23h-.05s-.84.48-.84.48l.03.03,2.44,1.39c.06.03.17.16.17.23v2.44ZM10.9,12.63l1.1.62,1.09-.61.02-.04v-1.24s-1.1-.62-1.1-.62l-1.11.62v1.26ZM13.56,11.65v2.89s-.08.15-.11.18l-2.14,1.23c1.19.98,3.04.2,3.13-1.35v-2.43s-.04-.04-.06-.06c-.25-.16-.53-.28-.78-.44h-.04ZM13.1,13.17l-2.49,1.41c-.13.06-.24.05-.36-.03l-2.05-1.17s-.01,0-.02.02c-.23,1.52,1.34,2.65,2.72,2l2.19-1.25v-.98Z"/>
  <path class="cls-1" d="M12,23.39C5.57,23.39.34,18.28.34,12S5.57.61,12,.61s11.66,5.11,11.66,11.39-5.23,11.39-11.66,11.39ZM12,1.11C5.84,1.11.84,5.99.84,12s5.01,10.89,11.16,10.89,11.16-4.89,11.16-10.89S18.16,1.11,12,1.11Z"/>
</svg>