<?xml version="1.0" encoding="UTF-8"?>
<svg id="Capa_1" data-name="Capa 1" xmlns="http://www.w3.org/2000/svg" viewBox="0 0 24 24">
  <defs>
    <style>
      .cls-1 {
        fill: #171717;
      }
    </style>
  </defs>
  <g>
    <path class="cls-1" d="M13,10.51c0-.61-.15-1.15-.45-1.63-.3-.48-.72-.85-1.26-1.11-.54-.26-1.17-.39-1.88-.39h-3.69v9.24h2.23v-3.14h1.42c1.13,0,2.01-.27,2.66-.81.65-.54.97-1.26.97-2.16h0ZM10.4,11.44c-.23.22-.56.32-.99.32h-1.46v-2.67h1.49c.4,0,.72.14.95.39h0c.23.26.35.6.35,1.03,0,.39-.11.7-.34.91Z"/>
    <path class="cls-1" d="M18.28,9.7c-.17-.05-.37-.08-.6-.08-.64,0-1.14.34-1.5,1.01l-.07-.88h-2.01v6.87h2.14v-4.35c.19-.42.62-.63,1.29-.63l.7.05.04-1.99Z"/>
  </g>
  <path class="cls-1" d="M12,23.39C5.57,23.39.34,18.28.34,12S5.57.61,12,.61s11.66,5.11,11.66,11.39-5.23,11.39-11.66,11.39ZM12,1.11C5.85,1.11.84,5.99.84,12s5.01,10.89,11.16,10.89,11.16-4.89,11.16-10.89S18.16,1.11,12,1.11Z"/>
</svg>